<?xml version="1.0" standalone="no"?>
<!DOCTYPE svg PUBLIC "-//W3C//DTD SVG 20010904//EN"
 "http://www.w3.org/TR/2001/REC-SVG-20010904/DTD/svg10.dtd">
<svg version="1.0" xmlns="http://www.w3.org/2000/svg"
 width="277.000000pt" height="177.000000pt" viewBox="0 0 277.000000 177.000000"
 preserveAspectRatio="xMidYMid meet">

<g transform="translate(0.000000,177.000000) scale(0.100000,-0.100000)"
fill="#000000" stroke="none">
<path d="M1948 1690 c-160 -19 -274 -75 -389 -189 -90 -90 -145 -181 -188
-310 -46 -139 -50 -131 74 -131 100 0 105 1 105 21 0 53 46 212 86 296 57 119
137 208 226 249 56 26 74 29 158 29 85 0 102 -3 155 -29 152 -74 276 -271 316
-503 l11 -63 108 0 107 0 -8 46 c-15 80 -30 127 -64 201 -104 226 -282 355
-527 382 -54 6 -99 10 -100 10 -2 -1 -33 -5 -70 -9z"/>
<path d="M474 1679 c-158 -26 -273 -125 -309 -264 -27 -106 -17 -205 32 -302
l26 -53 165 0 164 0 -58 43 c-144 107 -179 161 -179 282 0 108 31 169 112 223
52 34 63 37 139 41 110 4 167 -15 239 -81 76 -69 144 -216 145 -311 0 -28 24
-47 40 -31 4 5 10 107 12 227 4 215 4 217 -17 217 -17 0 -23 -9 -31 -42 -13
-61 -41 -62 -146 -4 -112 61 -207 76 -334 55z"/>
<path d="M599 937 c-23 -18 -39 -52 -39 -85 0 -32 34 -82 55 -82 9 0 5 9 -10
25 -32 31 -34 91 -5 123 24 26 78 30 86 7 4 -8 11 -12 17 -8 16 10 -23 33 -57
33 -17 0 -38 -6 -47 -13z"/>
<path d="M815 913 c2 -21 5 -63 6 -93 2 -44 3 -48 6 -17 6 50 39 51 71 2 12
-19 27 -35 33 -35 6 0 1 13 -10 29 -25 35 -26 45 -6 61 22 18 19 67 -4 80 -11
5 -38 10 -60 10 l-40 0 4 -37z m93 -6 c4 -37 -15 -59 -47 -55 -23 3 -26 8 -29
46 l-3 43 38 -3 c33 -3 38 -6 41 -31z"/>
<path d="M1042 858 c3 -84 5 -93 23 -96 16 -3 18 -1 8 9 -7 7 -13 28 -13 45 0
32 1 33 48 37 l47 3 -47 2 -48 2 0 39 0 40 53 4 52 3 -63 2 -63 2 3 -92z"/>
<path d="M1301 864 c-18 -47 -31 -88 -27 -91 3 -3 10 6 15 21 9 23 16 26 54
26 38 0 45 -4 56 -26 6 -15 14 -24 17 -21 9 9 -59 177 -71 177 -5 0 -25 -39
-44 -86z m73 -11 c7 -21 4 -23 -28 -23 -41 0 -42 5 -20 58 l15 37 13 -25 c8
-14 17 -35 20 -47z"/>
<path d="M1518 943 l32 -4 0 -85 c0 -49 4 -84 10 -84 6 0 10 35 10 84 l0 85
33 4 c17 2 -2 4 -43 4 -41 0 -60 -2 -42 -4z"/>
<path d="M1740 860 c0 -53 4 -90 10 -90 6 0 10 37 10 90 0 53 -4 90 -10 90 -6
0 -10 -37 -10 -90z"/>
<path d="M1898 930 c-53 -41 -40 -137 21 -158 18 -7 29 -7 26 -2 -4 6 -13 10
-21 10 -8 0 -22 16 -30 35 -25 61 4 125 57 125 59 0 82 -98 34 -145 -15 -16
-19 -25 -10 -25 25 0 55 50 55 92 0 74 -75 113 -132 68z"/>
<path d="M2142 858 l2 -93 5 73 6 74 21 -24 c11 -12 36 -44 54 -70 18 -27 37
-48 42 -48 4 0 8 41 8 90 0 107 -18 122 -22 19 l-3 -72 -50 71 c-27 40 -53 72
-57 72 -5 0 -7 -42 -6 -92z"/>
<path d="M675 780 c-16 -7 -17 -9 -3 -9 9 -1 20 4 23 9 7 11 7 11 -20 0z"/>
<path d="M1138 763 c7 -3 16 -2 19 1 4 3 -2 6 -13 5 -11 0 -14 -3 -6 -6z"/>
<path d="M811 608 c56 -62 79 -123 79 -213 0 -72 -4 -90 -31 -144 -37 -73 -86
-114 -168 -138 -126 -36 -291 9 -366 101 -61 75 -125 242 -125 328 0 39 -24
78 -38 63 -5 -5 -12 -126 -16 -268 l-6 -258 22 3 c15 2 24 14 32 43 10 35 16
40 43 43 20 2 45 -5 70 -21 93 -59 188 -86 299 -87 209 0 372 87 442 238 21
46 27 76 30 155 3 60 0 115 -8 142 l-13 45 -138 0 -138 0 30 -32z"/>
<path d="M1340 631 c0 -5 12 -44 26 -87 79 -243 238 -401 464 -460 81 -21 273
-24 350 -5 75 18 189 72 247 116 116 88 232 269 267 418 l6 27 -102 0 -103 0
-22 -92 c-60 -249 -210 -423 -388 -447 -128 -18 -245 29 -347 138 -73 77 -139
207 -165 324 l-18 77 -107 0 c-60 0 -108 -4 -108 -9z"/>
</g>
</svg>
